<svg xmlns="http://www.w3.org/2000/svg" viewBox="0 0 512 512" width="512" height="512">
  
  <!-- ========== ROBOTITO (scaled 0.6, centered) ========== -->
  <g transform="translate(256, 256) scale(0.6) translate(-275, -227)">
    
    <!-- Head -->
    <!-- Blue side -->
    <path d="M 302 235 
             L 195 235 
             A 90 90 0 0 1 195 55
             L 248 55"
          fill="none" 
          stroke="#4285F4" 
          stroke-width="32" 
          stroke-linecap="round"/>
    
    <!-- Green side -->
    <path d="M 248 55 
             L 355 55
             A 90 90 0 0 1 355 235
             L 302 235"
          fill="none" 
          stroke="#34A853" 
          stroke-width="32" 
          stroke-linecap="round"/>
    
    <!-- Eyes -->
    <circle cx="215" cy="145" r="18" fill="#4285F4"/>
    <circle cx="335" cy="145" r="18" fill="#4285F4"/>
    
    <!-- Cuerpito -->
    <!-- Yellow bracket [ (left) -->
    <path d="M 150 310 L 120 310 L 120 430 L 150 430" 
          fill="none" 
          stroke="#FBBC04" 
          stroke-width="32" 
          stroke-linecap="round" 
          stroke-linejoin="round"/>
    
    <!-- Red chevron < (center-left) -->
    <path d="M 250 310 L 200 370 L 250 430" 
          fill="none" 
          stroke="#EA4335" 
          stroke-width="32" 
          stroke-linecap="round" 
          stroke-linejoin="round"/>
    
    <!-- Red chevron > (right) -->
    <path d="M 380 310 L 430 370 L 380 430" 
          fill="none" 
          stroke="#EA4335" 
          stroke-width="32" 
          stroke-linecap="round" 
          stroke-linejoin="round"/>
  </g>

  <!-- ========== FLOATING SHAPES v4 (mixed sizes, chaotic) ========== -->
  
  <!-- Top center - Tiny circle (red, filled) -->
  <circle cx="256" cy="35" r="6" fill="#EA4335" stroke="none"/>
  
  <!-- Top left - Medium triangle (violet, filled) -->
  <polygon points="70,50 95,90 45,90" fill="#9B59B6" stroke="none"/>
  
  <!-- Top right - Tiny square (yellow, filled) -->
  <rect x="415" y="50" width="10" height="10" fill="#FBBC04" stroke="none"/>
  
  <!-- Top right lower - Medium hexagon (green, filled) -->
  <polygon points="450,100 470,112 470,136 450,148 430,136 430,112" fill="#34A853" stroke="none"/>
  
  <!-- Left upper - Tiny circle (blue, outline) -->
  <circle cx="55" cy="170" r="5" fill="none" stroke="#4285F4" stroke-width="3"/>
  
  <!-- Left - Large plus (yellow, outline) -->
  <path d="M 40,280 L 40,340 M 10,310 L 70,310" fill="none" stroke="#FBBC04" stroke-width="8" stroke-linecap="round"/>
  
  <!-- Right - Small circle (red, filled) -->
  <circle cx="460" cy="200" r="12" fill="#EA4335" stroke="none"/>
  
  <!-- Right lower - Large square (violet, outline) -->
  <rect x="435" y="290" width="40" height="40" fill="none" stroke="#9B59B6" stroke-width="5"/>
  
  <!-- Bottom left - Medium circle (blue, filled) -->
  <circle cx="90" cy="430" r="16" fill="#4285F4" stroke="none"/>
  
  <!-- Bottom left inner - Tiny triangle (green, filled) -->
  <polygon points="140,460 150,478 130,478" fill="#34A853" stroke="none"/>
  
  <!-- Bottom right - Large circle (green, outline) -->
  <circle cx="420" cy="450" r="25" fill="none" stroke="#34A853" stroke-width="5"/>
  
  <!-- Bottom center - Small square (blue, outline) -->
  <rect x="244" y="470" width="24" height="24" fill="none" stroke="#4285F4" stroke-width="4"/>

</svg>
